<svg width="329" height="133" viewBox="0 0 329 133" fill="none" xmlns="http://www.w3.org/2000/svg">
<path d="M323.214 119.546H308.565C311.204 118.297 313.258 115.892 313.693 113.103C314.045 110.856 314.213 108.633 314.213 106.305C314.216 92.1715 307.823 78.9063 296.215 68.9535C285.742 59.9715 272.134 54.7202 257.541 53.852V43.4888C258.304 43.9255 259.174 44.1965 260.116 44.1965C262.989 44.1965 265.323 41.8655 265.323 38.9899C265.323 36.1143 262.989 33.7833 260.116 33.7833C258.148 33.7833 256.457 34.8856 255.573 36.4931C255.354 36.4352 255.144 36.3589 254.907 36.3589C254.673 36.3589 254.462 36.4352 254.247 36.4931C253.36 34.8856 251.671 33.7833 249.703 33.7833C246.827 33.7833 244.496 36.1143 244.496 38.9899C244.496 41.8655 246.827 44.1965 249.703 44.1965C250.642 44.1965 251.513 43.9255 252.276 43.4914V53.6968C219.126 54.1545 192.317 77.5698 192.317 106.305C192.317 108.528 192.478 110.798 192.796 113.051C193.196 115.866 195.232 118.289 197.869 119.546H185.09C182.188 119.546 179.828 121.906 179.828 124.808C179.828 127.71 182.188 130.07 185.09 130.07H323.214C326.116 130.07 328.476 127.71 328.476 124.808C328.476 121.906 326.116 119.546 323.214 119.546ZM253.268 58.9349C268.217 58.9349 282.253 63.9127 292.79 72.9499C303.211 81.8845 308.952 93.7316 308.952 106.307C308.952 108.357 308.802 110.317 308.491 112.295C308.257 113.79 306.418 115.205 304.705 115.205H201.71C200.015 115.205 198.216 113.8 198.005 112.314C197.724 110.304 197.579 108.283 197.579 106.305C197.579 80.1876 222.562 58.9349 253.268 58.9349ZM323.214 127.439H185.09C183.64 127.439 182.459 126.26 182.459 124.808C182.459 123.356 183.64 122.177 185.09 122.177H323.214C324.666 122.177 325.845 123.356 325.845 124.808C325.845 126.26 324.666 127.439 323.214 127.439Z" fill="#030104"/>
<path d="M210.6 106.405C210.626 106.405 210.655 106.407 210.681 106.407C211.371 106.407 211.949 105.868 211.994 105.171C212.01 104.902 213.967 78.2589 241.721 68.0088C242.402 67.7562 242.752 67.0011 242.5 66.3171C242.247 65.6357 241.487 65.2884 240.808 65.5384C211.4 76.4015 209.382 104.731 209.366 105.015C209.321 105.739 209.874 106.362 210.6 106.405Z" fill="#030104"/>
<path d="M222.449 27.8055C229.148 31.7125 227.585 42.6571 227.569 42.7676C227.459 43.4859 227.953 44.1567 228.672 44.2646C228.74 44.2751 228.806 44.2804 228.872 44.2804C229.511 44.2804 230.071 43.8147 230.169 43.1649C230.248 42.644 232.026 30.3444 223.775 25.535C218.89 22.6805 216.856 19.2971 216.582 17.0819C216.469 16.1637 216.648 15.4217 217.088 14.9929C217.606 14.4851 217.616 13.6511 217.109 13.1328C216.604 12.6145 215.767 12.604 215.249 13.1118C214.209 14.1273 213.757 15.6533 213.973 17.4028C214.425 21.0809 217.595 24.972 222.449 27.8055Z" fill="#030104"/>
<path d="M282.082 45.8828C282.148 45.8828 282.216 45.8776 282.282 45.867C283 45.7565 283.495 45.0856 283.384 44.3674C283.369 44.2569 281.785 33.328 288.502 29.4053C293.358 26.5692 296.526 22.6807 296.978 19.0026C297.194 17.2504 296.742 15.7271 295.702 14.7116C295.182 14.2064 294.348 14.2143 293.842 14.7326C293.335 15.2535 293.345 16.0849 293.863 16.5927C294.303 17.0242 294.482 17.7634 294.369 18.6816C294.095 20.8969 292.064 24.2803 287.178 27.1348C278.93 31.9468 280.706 44.2437 280.785 44.7647C280.885 45.4171 281.445 45.8828 282.082 45.8828Z" fill="#030104"/>
<path d="M253.797 25.693C254.047 26.0903 254.473 26.3086 254.913 26.3086C255.152 26.3086 255.394 26.2429 255.61 26.1061C256.225 25.7193 256.412 24.9064 256.025 24.2933C255.991 24.2434 252.921 19.2709 255.802 16.6189C258.698 13.9538 260.046 11.1229 259.803 8.20784C259.411 3.41429 254.797 0.341367 254.599 0.212452C253.992 -0.182188 253.176 -0.0111774 252.779 0.593936C252.382 1.20168 252.553 2.01727 253.16 2.41454C253.197 2.43822 256.894 4.89551 257.183 8.42358C257.351 10.4889 256.289 12.5936 254.018 14.6826C249.548 18.8 253.621 25.4141 253.797 25.693Z" fill="#030104"/>
<path d="M300.284 106.042C300.284 77.3377 269.529 68.453 254.152 67.5987C223.397 84.0012 259.278 100.062 261.841 106.042H300.284Z" fill="#FFE500"/>
<path d="M12.1273 78.8342H0.505304C0.168435 78.8342 0 78.6658 0 78.3289L0.202122 7.23259C0.202122 6.9631 0.336869 6.82835 0.606365 6.82835H33.7543C34.0912 6.82835 34.2596 6.9631 34.2596 7.23259V18.9051C34.2596 19.1746 34.1249 19.3094 33.8554 19.3094H12.6326V35.378H33.8554C34.1249 35.378 34.2596 35.5465 34.2596 35.8833L34.3607 47.6064C34.3607 47.8759 34.1923 48.0106 33.8554 48.0106H12.6326V78.3289C12.6326 78.6658 12.4642 78.8342 12.1273 78.8342Z" fill="black"/>
<path d="M58.5648 79.8448C54.8929 79.8448 51.5073 78.9016 48.4081 77.0151C45.3426 75.1286 42.8666 72.619 40.9802 69.4861C39.1274 66.3195 38.201 62.8497 38.201 59.0768L38.3021 26.2826C38.3021 22.4422 39.2284 18.9893 41.0812 15.9238C42.9003 12.8246 45.3595 10.3486 48.4587 8.49585C51.5579 6.60938 54.9266 5.66615 58.5648 5.66615C62.3377 5.66615 65.7232 6.59254 68.7214 8.44532C71.7532 10.2981 74.1787 12.7909 75.9977 15.9238C77.8505 19.023 78.7769 22.4759 78.7769 26.2826L78.878 59.0768C78.878 62.8497 77.9684 66.3027 76.1493 69.4355C74.2966 72.6021 71.8374 75.1286 68.7719 77.0151C65.7064 78.9016 62.304 79.8448 58.5648 79.8448ZM58.5648 67.3638C60.6533 67.3638 62.4724 66.5216 64.022 64.8373C65.5716 63.1192 66.3464 61.1991 66.3464 59.0768L66.2454 26.2826C66.2454 23.9918 65.5211 22.0548 64.0726 20.4716C62.624 18.8883 60.7881 18.0966 58.5648 18.0966C56.4425 18.0966 54.6234 18.8714 53.1075 20.421C51.5916 21.9706 50.8336 23.9245 50.8336 26.2826V59.0768C50.8336 61.3338 51.5916 63.2877 53.1075 64.9383C54.6234 66.5553 56.4425 67.3638 58.5648 67.3638Z" fill="black"/>
<path d="M105.861 79.8448C102.189 79.8448 98.8038 78.9016 95.7046 77.0151C92.6391 75.1286 90.1631 72.619 88.2766 69.4861C86.4239 66.3195 85.4975 62.8497 85.4975 59.0768L85.5985 26.2826C85.5985 22.4422 86.5249 18.9893 88.3777 15.9238C90.1968 12.8246 92.6559 10.3486 95.7551 8.49585C98.8543 6.60938 102.223 5.66615 105.861 5.66615C109.634 5.66615 113.02 6.59254 116.018 8.44532C119.05 10.2981 121.475 12.7909 123.294 15.9238C125.147 19.023 126.073 22.4759 126.073 26.2826L126.174 59.0768C126.174 62.8497 125.265 66.3027 123.446 69.4355C121.593 72.6021 119.134 75.1286 116.068 77.0151C113.003 78.9016 109.6 79.8448 105.861 79.8448ZM105.861 67.3638C107.95 67.3638 109.769 66.5216 111.319 64.8373C112.868 63.1192 113.643 61.1991 113.643 59.0768L113.542 26.2826C113.542 23.9918 112.818 22.0548 111.369 20.4716C109.921 18.8883 108.085 18.0966 105.861 18.0966C103.739 18.0966 101.92 18.8714 100.404 20.421C98.888 21.9706 98.1301 23.9245 98.1301 26.2826V59.0768C98.1301 61.3338 98.888 63.2877 100.404 64.9383C101.92 66.5553 103.739 67.3638 105.861 67.3638Z" fill="black"/>
<path d="M153.057 78.7331L134.512 78.8342C134.175 78.8342 134.007 78.6658 134.007 78.3289L134.209 7.23259C134.209 6.9631 134.344 6.82835 134.613 6.82835L153.966 6.72729C157.806 6.62623 161.276 7.50209 164.375 9.35487C167.508 11.2077 170.001 13.7173 171.854 16.8839C173.74 20.0168 174.684 23.4865 174.684 27.2932V57.0051C174.684 60.9801 173.724 64.6183 171.803 67.9196C169.85 71.1873 167.256 73.798 164.022 75.7518C160.788 77.672 157.133 78.6658 153.057 78.7331ZM153.966 19.1072L146.74 19.2083L146.639 66.1005H153.057C155.617 66.1005 157.773 65.2078 159.525 63.4224C161.276 61.637 162.152 59.4979 162.152 57.0051V27.1921C162.152 25.0025 161.344 23.0991 159.727 21.4822C158.11 19.8315 156.19 19.0399 153.966 19.1072Z" fill="black"/>
<path d="M59.0824 132.948C56.8199 132.948 54.7675 132.407 52.9255 131.326C51.1034 130.245 49.6618 128.753 48.6006 126.851C47.5594 124.929 47.0388 122.786 47.0388 120.424V117.571C47.0388 117.41 47.1189 117.33 47.2791 117.33H54.247C54.4071 117.33 54.4872 117.44 54.4872 117.661V120.424C54.4872 121.925 54.9177 123.157 55.7787 124.118C56.6397 125.059 57.7409 125.529 59.0824 125.529C60.3238 125.529 61.395 125.019 62.296 123.998C63.197 122.957 63.6476 121.765 63.6476 120.424V89.8493C63.6476 89.6891 63.7276 89.609 63.8878 89.609H70.7956C70.9558 89.609 71.0359 89.7091 71.0359 89.9094L71.0959 120.424C71.0959 122.666 70.5553 124.739 69.4741 126.641C68.3729 128.563 66.9212 130.095 65.1192 131.236C63.3172 132.377 61.3049 132.948 59.0824 132.948Z" fill="black"/>
<path d="M87.104 132.948C84.9215 132.948 82.9093 132.387 81.0672 131.266C79.2451 130.145 77.7735 128.653 76.6522 126.791C75.551 124.909 75.0003 122.846 75.0003 120.604L75.0604 101.112C75.0604 98.8294 75.611 96.7771 76.7123 94.955C77.7935 93.113 79.2551 91.6413 81.0972 90.5401C82.9393 89.4188 84.9415 88.8582 87.104 88.8582C89.3465 88.8582 91.3588 89.4088 93.1408 90.51C94.9428 91.6113 96.3844 93.0929 97.4657 94.955C98.5669 96.7971 99.1175 98.8494 99.1175 101.112L99.1776 120.604C99.1776 122.846 98.637 124.899 97.5558 126.761C96.4545 128.643 94.9929 130.145 93.1708 131.266C91.3488 132.387 89.3265 132.948 87.104 132.948ZM87.104 125.529C88.3454 125.529 89.4266 125.029 90.3476 124.028C91.2687 123.007 91.7292 121.865 91.7292 120.604L91.6691 101.112C91.6691 99.7505 91.2386 98.5991 90.3777 97.6581C89.5167 96.717 88.4255 96.2465 87.104 96.2465C85.8426 96.2465 84.7613 96.707 83.8603 97.6281C82.9593 98.5491 82.5088 99.7104 82.5088 101.112V120.604C82.5088 121.945 82.9593 123.107 83.8603 124.088C84.7613 125.049 85.8426 125.529 87.104 125.529Z" fill="black"/>
<path d="M111.101 132.347H104.133C103.933 132.347 103.833 132.247 103.833 132.047L103.893 89.7892C103.893 89.629 103.973 89.549 104.133 89.549H111.041C111.201 89.549 111.281 89.629 111.281 89.7892L111.341 132.047C111.341 132.247 111.261 132.347 111.101 132.347Z" fill="black"/>
<path d="M123.445 132.347H117.288C116.968 132.347 116.807 132.207 116.807 131.927L116.747 90.0295C116.747 89.7091 116.908 89.549 117.228 89.549H122.784L133.176 113.786L132.876 90.0295C132.876 89.7091 133.056 89.549 133.416 89.549H139.513C139.753 89.549 139.873 89.7091 139.873 90.0295L139.934 131.987C139.934 132.227 139.833 132.347 139.633 132.347H134.227L123.565 109.702L124.016 131.867C124.016 132.187 123.825 132.347 123.445 132.347Z" fill="black"/>
<path d="M158.404 132.347H151.466C151.286 132.347 151.196 132.247 151.196 132.047V96.9673H143.207C143.007 96.9673 142.907 96.8672 142.907 96.667L142.967 89.7892C142.967 89.629 143.047 89.549 143.207 89.549H166.574C166.794 89.549 166.904 89.629 166.904 89.7892V96.667C166.904 96.8672 166.824 96.9673 166.664 96.9673H158.585L158.645 132.047C158.645 132.247 158.564 132.347 158.404 132.347Z" fill="black"/>
</svg>
