<svg width="59" height="59" viewBox="0 0 59 59" fill="none" xmlns="http://www.w3.org/2000/svg">
<path fill-rule="evenodd" clip-rule="evenodd" d="M42.6252 25.1251C44.2293 25.1251 45.5418 26.4376 45.5418 28.0417L45.5272 28.1584L45.5418 28.173V30.9584C45.5418 31.3376 45.4689 31.6876 45.3377 32.023L40.9335 42.3042C40.496 43.3542 39.4606 44.0834 38.2502 44.0834H25.1252C23.521 44.0834 22.2085 42.7709 22.2085 41.1667V26.5834C22.2085 25.7813 22.5293 25.0522 23.0689 24.5272L32.6647 14.9167L34.2106 16.448C34.6043 16.8417 34.8522 17.3959 34.8522 17.9938L34.8085 18.4605L33.4231 25.1251H42.6252ZM19.2918 44.0834H13.4585V26.5834H19.2918V44.0834Z" fill="black" fill-opacity="0.54"/>
</svg>
